<?xml version="1.0" encoding="UTF-8"?>
<svg xmlns="http://www.w3.org/2000/svg" width="1600" height="960" viewBox="0 0 1600 960">
<rect x="0" y="0" width="1600" height="960" fill="rgb(237, 240, 247)"/>
<rect x="0.00" y="0.00" width="1600.00" height="960.00" fill="rgb(237, 240, 247)"/>
<rect x="0.00" y="20.00" width="1600.00" height="920.00" fill="rgb(255, 255, 255)" rx="16.00"/>
<rect x="0.00" y="20.00" width="290.00" height="920.00" fill="rgb(245, 247, 250)"/>
<text x="14.00" y="54.00" fill="rgb(57, 99, 236)" font-size="18" font-weight="800" font-family="\'Microsoft YaHei\', \'PingFang SC\', Arial, sans-serif" text-anchor="start">贵州白酒交易所AI</text>
<text x="14.00" y="74.59" fill="rgb(138, 147, 168)" font-size="13" font-weight="400" font-family="\'Microsoft YaHei\', \'PingFang SC\', Arial, sans-serif" text-anchor="start">智能协作系统</text>
<g transform="translate(245.00,36.00)">
        <rect x="3" y="4" width="18" height="16" rx="2"></rect>
        <line x1="8" y1="4" x2="8" y2="20"></line>
        <path d="m14 9-3 3 3 3"></path>
      </g>
<rect x="14.00" y="92.59" width="261.00" height="40.00" fill="rgb(255, 255, 255)" rx="10.00" stroke="rgb(220, 224, 232)" stroke-width="1"/>
<text x="14.00" y="106.59" fill="rgb(52, 62, 85)" font-size="14" font-weight="400" font-family="\'Microsoft YaHei\', \'PingFang SC\', Arial, sans-serif" text-anchor="start">开启新对话</text>
<g transform="translate(27.00,104.59)"><circle cx="12" cy="12" r="10"></circle><line x1="12" y1="8" x2="12" y2="16"></line><line x1="8" y1="12" x2="16" y2="12"></line></g>
<text x="16.00" y="164.59" fill="rgb(52, 62, 85)" font-size="14" font-weight="400" font-family="\'Microsoft YaHei\', \'PingFang SC\', Arial, sans-serif" text-anchor="start">技能</text>
<g transform="translate(16.00,151.09)"><path d="M12 20V10"></path><path d="M18 20V4"></path><path d="M6 20v-4"></path></g>
<text x="16.00" y="195.59" fill="rgb(52, 62, 85)" font-size="14" font-weight="400" font-family="\'Microsoft YaHei\', \'PingFang SC\', Arial, sans-serif" text-anchor="start">任务</text>
<g transform="translate(16.00,182.09)"><path d="M9 11l3 3L22 4"></path><path d="M21 12v7a2 2 0 0 1-2 2H5a2 2 0 0 1-2-2V5a2 2 0 0 1 2-2h11"></path></g>
<text x="16.00" y="226.59" fill="rgb(52, 62, 85)" font-size="14" font-weight="400" font-family="\'Microsoft YaHei\', \'PingFang SC\', Arial, sans-serif" text-anchor="start">更多</text>
<g transform="translate(16.00,213.09)"><rect x="3" y="3" width="7" height="7"></rect><rect x="14" y="3" width="7" height="7"></rect><rect x="14" y="14" width="7" height="7"></rect><rect x="3" y="14" width="7" height="7"></rect><path d="M10 12h4"></path><path d="M12 10v4"></path></g>
<text x="14.00" y="264.59" fill="rgb(138, 147, 168)" font-size="13" font-weight="400" font-family="\'Microsoft YaHei\', \'PingFang SC\', Arial, sans-serif" text-anchor="start">工作空间</text>
<text x="14.00" y="291.59" fill="rgb(52, 62, 85)" font-size="13" font-weight="400" font-family="\'Microsoft YaHei\', \'PingFang SC\', Arial, sans-serif" text-anchor="start">测试任务</text>
<g transform="translate(14.00,282.59)"><path d="M20 10.5V7a2 2 0 0 0-2-2h-8.5L7.5 3H4a2 2 0 0 0-2 2v12a2 2 0 0 0 2 2h16a2 2 0 0 0 2-2V10.5"></path><path d="M11.5 19H22M22 10.5V19"></path></g>
<text x="38.00" y="325.59" fill="rgb(31, 41, 64)" font-size="13" font-weight="500" font-family="\'Microsoft YaHei\', \'PingFang SC\', Arial, sans-serif" text-anchor="start">测试任务</text>
<rect x="239.00" y="317.09" width="8.00" height="8.00" fill="rgb(52, 100, 232)" rx="4.00"/>
<text x="251.00" y="325.09" fill="rgb(138, 147, 168)" font-size="12" font-weight="400" font-family="\'Microsoft YaHei\', \'PingFang SC\', Arial, sans-serif" text-anchor="start">刚刚</text>
<text x="14.00" y="360.59" fill="rgb(52, 62, 85)" font-size="13" font-weight="400" font-family="\'Microsoft YaHei\', \'PingFang SC\', Arial, sans-serif" text-anchor="start">陈冰的测试任务</text>
<g transform="translate(14.00,351.59)">
          <path d="M20 10.5V7a2 2 0 0 0-2-2h-8.5L7.5 3H4a2 2 0 0 0-2 2v12a2 2 0 0 0 2 2h7.5"></path>
          <circle cx="13.5" cy="12.5" r="1.8"></circle>
          <path d="M10 18c0-1.6 1.6-2.6 3.5-2.6s3.5 1 3.5 2.6"></path>
          <circle cx="18.5" cy="10" r="1.5"></circle>
          <path d="M16 14.8c.7-.4 1.6-.6 2.5-.6 1.8 0 2.8.8 2.8 2.2"></path>
        </g>
<text x="38.00" y="398.59" fill="rgb(31, 41, 64)" font-size="13" font-weight="500" font-family="\'Microsoft YaHei\', \'PingFang SC\', Arial, sans-serif" text-anchor="start">陈冰的测试任务</text>
<g transform="translate(188.92,387.09)">
            <rect x="4" y="4" width="16" height="16" rx="2"></rect>
            <path d="m9 10 2 2 4-4"></path>
          </g>
<g transform="translate(206.92,387.09)">
            <path d="M 18.5 12 A 8 8 0 1 0 7 17.5 L 4.5 20 L 9 18.5 A 8 8 0 0 0 18.5 12"></path>
            <circle cx="13" cy="12.5" r="1.8"></circle>
            <path d="M9.5 18c0-1.6 1.6-2.6 3.5-2.6s3.5 1 3.5 2.6"></path>
            <circle cx="18" cy="10" r="1.5"></circle>
            <path d="M15.5 14.8c.7-.4 1.6-.6 2.5-.6 1.8 0 2.8.8 2.8 2.2"></path>
          </g>
<text x="224.92" y="398.09" fill="rgb(107, 128, 232)" font-size="12" font-weight="400" font-family="\'Microsoft YaHei\', \'PingFang SC\', Arial, sans-serif" text-anchor="start">15小时前</text>
<text x="14.00" y="433.59" fill="rgb(52, 62, 85)" font-size="13" font-weight="400" font-family="\'Microsoft YaHei\', \'PingFang SC\', Arial, sans-serif" text-anchor="start">0728消息中心上线</text>
<g transform="translate(14.00,424.59)">
          <path d="M20 10.5V7a2 2 0 0 0-2-2h-8.5L7.5 3H4a2 2 0 0 0-2 2v12a2 2 0 0 0 2 2h7.5"></path>
          <circle cx="13.5" cy="12.5" r="1.8"></circle>
          <path d="M10 18c0-1.6 1.6-2.6 3.5-2.6s3.5 1 3.5 2.6"></path>
          <circle cx="18.5" cy="10" r="1.5"></circle>
          <path d="M16 14.8c.7-.4 1.6-.6 2.5-.6 1.8 0 2.8.8 2.8 2.2"></path>
        </g>
<text x="38.00" y="471.59" fill="rgb(31, 41, 64)" font-size="13" font-weight="500" font-family="\'Microsoft YaHei\', \'PingFang SC\', Arial, sans-serif" text-anchor="start">0728消息中心上线</text>
<rect x="212.92" y="463.09" width="8.00" height="8.00" fill="rgb(52, 100, 232)" rx="4.00"/>
<text x="224.92" y="471.09" fill="rgb(138, 147, 168)" font-size="12" font-weight="400" font-family="\'Microsoft YaHei\', \'PingFang SC\', Arial, sans-serif" text-anchor="start">10分钟前</text>
<text x="14.00" y="506.59" fill="rgb(52, 62, 85)" font-size="13" font-weight="400" font-family="\'Microsoft YaHei\', \'PingFang SC\', Arial, sans-serif" text-anchor="start">默认</text>
<g transform="translate(14.00,497.59)"><path d="M20 10.5V7a2 2 0 0 0-2-2h-8.5L7.5 3H4a2 2 0 0 0-2 2v12a2 2 0 0 0 2 2h16a2 2 0 0 0 2-2V10.5"></path><path d="M11.5 19H22M22 10.5V19"></path></g>
<text x="38.00" y="540.59" fill="rgb(57, 99, 236)" font-size="13" font-weight="500" font-family="\'Microsoft YaHei\', \'PingFang SC\', Arial, sans-serif" text-anchor="start">630版本迭代</text>
<text x="240.41" y="540.09" fill="rgb(107, 128, 232)" font-size="12" font-weight="400" font-family="\'Microsoft YaHei\', \'PingFang SC\', Arial, sans-serif" text-anchor="start">1 小时</text>
<text x="38.00" y="573.59" fill="rgb(31, 41, 64)" font-size="13" font-weight="500" font-family="\'Microsoft YaHei\', \'PingFang SC\', Arial, sans-serif" text-anchor="start">明天天气怎么样？</text>
<text x="252.41" y="573.09" fill="rgb(138, 147, 168)" font-size="12" font-weight="400" font-family="\'Microsoft YaHei\', \'PingFang SC\', Arial, sans-serif" text-anchor="start">1 天</text>
<text x="38.00" y="606.59" fill="rgb(31, 41, 64)" font-size="13" font-weight="500" font-family="\'Microsoft YaHei\', \'PingFang SC\', Arial, sans-serif" text-anchor="start">OpenClaw最新版本更新与功能改...</text>
<text x="224.92" y="606.09" fill="rgb(138, 147, 168)" font-size="12" font-weight="400" font-family="\'Microsoft YaHei\', \'PingFang SC\', Arial, sans-serif" text-anchor="start">21小时前</text>
<text x="38.00" y="639.59" fill="rgb(31, 41, 64)" font-size="13" font-weight="500" font-family="\'Microsoft YaHei\', \'PingFang SC\', Arial, sans-serif" text-anchor="start">目前openclaw最新版本以及最近...</text>
<text x="224.92" y="639.09" fill="rgb(138, 147, 168)" font-size="12" font-weight="400" font-family="\'Microsoft YaHei\', \'PingFang SC\', Arial, sans-serif" text-anchor="start">21小时前</text>
<text x="38.00" y="672.59" fill="rgb(31, 41, 64)" font-size="13" font-weight="500" font-family="\'Microsoft YaHei\', \'PingFang SC\', Arial, sans-serif" text-anchor="start">当前会话</text>
<text x="224.92" y="672.09" fill="rgb(138, 147, 168)" font-size="12" font-weight="400" font-family="\'Microsoft YaHei\', \'PingFang SC\', Arial, sans-serif" text-anchor="start">21小时前</text>
<text x="38.00" y="702.59" fill="rgb(138, 147, 168)" font-size="12" font-weight="400" font-family="\'Microsoft YaHei\', \'PingFang SC\', Arial, sans-serif" text-anchor="start">展开显示</text>
<rect x="14.00" y="904.00" width="28.00" height="28.00" fill="rgb(240, 240, 255)" rx="14.00"/>
<text x="14.00" y="918.00" fill="rgb(59, 82, 214)" font-size="14" font-weight="600" font-family="\'Microsoft YaHei\', \'PingFang SC\', Arial, sans-serif" text-anchor="start">C</text>
<text x="50.00" y="922.50" fill="rgb(31, 41, 64)" font-size="13" font-weight="600" font-family="\'Microsoft YaHei\', \'PingFang SC\', Arial, sans-serif" text-anchor="start">chenb</text>
<g transform="translate(227.00,910.00)">
            <path d="M18 8A6 6 0 0 0 6 8c0 7-3 9-3 9h18s-3-2-3-9"></path>
            <path d="M13.73 21a2 2 0 0 1-3.46 0"></path>
          </g>
<rect x="231.00" y="903.00" width="20.00" height="20.00" fill="rgb(255, 45, 45)" rx="10.00"/>
<text x="241.00" y="914.00" fill="rgb(255, 255, 255)" font-size="11" font-weight="700" font-family="Arial" text-anchor="middle">4</text>
<g transform="translate(257.00,910.00)">
            <circle cx="12" cy="12" r="3"></circle>
            <path d="M19.4 15a1.65 1.65 0 0 0 .33 1.82l.06.06a2 2 0 0 1 0 2.83 2 2 0 0 1-2.83 0l-.06-.06a1.65 1.65 0 0 0-1.82-.33 1.65 1.65 0 0 0-1 1.51V21a2 2 0 0 1-2 2 2 2 0 0 1-2-2v-.09A1.65 1.65 0 0 0 9 19.4a1.65 1.65 0 0 0-1.82.33l-.06.06a2 2 0 0 1-2.83 0 2 2 0 0 1 0-2.83l.06-.06a1.65 1.65 0 0 0 .33-1.82 1.65 1.65 0 0 0-1.51-1H3a2 2 0 0 1-2-2 2 2 0 0 1 2-2h.09A1.65 1.65 0 0 0 4.6 9a1.65 1.65 0 0 0-.33-1.82l-.06-.06a2 2 0 0 1 0-2.83 2 2 0 0 1 2.83 0l.06.06a1.65 1.65 0 0 0 1.82.33H9a1.65 1.65 0 0 0 1-1.51V3a2 2 0 0 1 2-2 2 2 0 0 1 2 2v.09a1.65 1.65 0 0 0 1 1.51 1.65 1.65 0 0 0 1.82-.33l.06-.06a2 2 0 0 1 2.83 0 2 2 0 0 1 0 2.83l-.06.06a1.65 1.65 0 0 0-.33 1.82V9a1.65 1.65 0 0 0 1.51 1H21a2 2 0 0 1 2 2 2 2 0 0 1-2 2h-.09a1.65 1.65 0 0 0-1.51 1z"></path>
          </g>
<text x="312.00" y="60.50" fill="rgb(31, 41, 64)" font-size="21" font-weight="800" font-family="\'Microsoft YaHei\', \'PingFang SC\', Arial, sans-serif" text-anchor="start">630版本迭代</text>
<rect x="439.59" y="41.50" width="79.41" height="30.00" fill="rgb(234, 240, 255)" rx="15.00"/>
<text x="439.59" y="53.50" fill="rgb(52, 100, 232)" font-size="12" font-weight="700" font-family="\'Microsoft YaHei\', \'PingFang SC\', Arial, sans-serif" text-anchor="start">● 多人协作</text>
<rect x="1080.33" y="41.00" width="29.00" height="29.00" fill="rgb(139, 114, 232)" rx="14.50" stroke="rgb(255, 255, 255)" stroke-width="2"/>
<text x="1080.33" y="52.00" fill="rgb(255, 255, 255)" font-size="11" font-weight="700" font-family="\'Microsoft YaHei\', \'PingFang SC\', Arial, sans-serif" text-anchor="start">陈斌</text>
<rect x="1116.33" y="41.00" width="29.00" height="29.00" fill="rgb(227, 135, 93)" rx="14.50" stroke="rgb(255, 255, 255)" stroke-width="2"/>
<text x="1116.33" y="52.00" fill="rgb(255, 255, 255)" font-size="11" font-weight="700" font-family="\'Microsoft YaHei\', \'PingFang SC\', Arial, sans-serif" text-anchor="start">施展</text>
<rect x="1152.33" y="41.00" width="29.00" height="29.00" fill="rgb(75, 159, 232)" rx="14.50" stroke="rgb(255, 255, 255)" stroke-width="2"/>
<text x="1152.33" y="52.00" fill="rgb(255, 255, 255)" font-size="11" font-weight="700" font-family="\'Microsoft YaHei\', \'PingFang SC\', Arial, sans-serif" text-anchor="start">宋贤</text>
<rect x="1195.33" y="38.00" width="52.67" height="35.00" fill="rgb(234, 240, 255)" rx="17.50"/>
<text x="1221.66" y="51.33" fill="rgb(65, 102, 233)" font-size="13.3333" font-weight="700" font-family="Arial" text-anchor="middle">邀请</text>
<rect x="579.28" y="111.00" width="401.42" height="30.00" fill="rgb(241, 244, 250)" rx="14.00"/>
<text x="779.99" y="123.00" fill="rgb(110, 120, 145)" font-size="12" font-weight="400" font-family="\'Microsoft YaHei\', \'PingFang SC\', Arial, sans-serif" text-anchor="middle">会话已进入多人协作模式 · 可通过输入框AI开关或 @工作秘书 让AI参与</text>
<rect x="320.00" y="158.00" width="29.00" height="29.00" fill="rgb(139, 114, 232)" rx="14.50" stroke="rgb(255, 255, 255)" stroke-width="2"/>
<text x="320.00" y="169.00" fill="rgb(255, 255, 255)" font-size="11" font-weight="700" font-family="\'Microsoft YaHei\', \'PingFang SC\', Arial, sans-serif" text-anchor="start">陈斌</text>
<text x="360.00" y="170.00" fill="rgb(117, 128, 151)" font-size="12" font-weight="400" font-family="\'Microsoft YaHei\', \'PingFang SC\', Arial, sans-serif" text-anchor="start">陈斌 10:12</text>
<rect x="360.00" y="179.00" width="458.30" height="47.09" fill="rgb(244, 246, 250)" rx="4.00"/>
<text x="360.00" y="193.00" fill="rgb(31, 41, 64)" font-size="14" font-weight="400" font-family="\'Microsoft YaHei\', \'PingFang SC\', Arial, sans-serif" text-anchor="start">Rclaw技术方案初稿已经完成，接下来需要确认接入方式和演示范围。</text>
<rect x="1211.00" y="243.09" width="29.00" height="29.00" fill="rgb(75, 159, 232)" rx="14.50" stroke="rgb(255, 255, 255)" stroke-width="2"/>
<text x="1211.00" y="254.09" fill="rgb(255, 255, 255)" font-size="11" font-weight="700" font-family="\'Microsoft YaHei\', \'PingFang SC\', Arial, sans-serif" text-anchor="start">宋贤</text>
<text x="1200.00" y="255.09" fill="rgb(117, 128, 151)" font-size="12" font-weight="400" font-family="\'Microsoft YaHei\', \'PingFang SC\', Arial, sans-serif" text-anchor="end">宋贤群 10:16</text>
<rect x="854.14" y="264.09" width="345.86" height="47.09" fill="rgb(233, 239, 255)" rx="16.00"/>
<text x="854.14" y="278.09" fill="rgb(31, 41, 64)" font-size="14" font-weight="400" font-family="\'Microsoft YaHei\', \'PingFang SC\', Arial, sans-serif" text-anchor="start">我建议先按接口方案A验证，大家看看是否有风险？</text>
<rect x="320.00" y="328.19" width="29.00" height="29.00" fill="rgb(227, 135, 93)" rx="14.50" stroke="rgb(255, 255, 255)" stroke-width="2"/>
<text x="320.00" y="339.19" fill="rgb(255, 255, 255)" font-size="11" font-weight="700" font-family="\'Microsoft YaHei\', \'PingFang SC\', Arial, sans-serif" text-anchor="start">施展</text>
<text x="360.00" y="340.19" fill="rgb(117, 128, 151)" font-size="12" font-weight="400" font-family="\'Microsoft YaHei\', \'PingFang SC\', Arial, sans-serif" text-anchor="start">施展 10:18</text>
<rect x="360.00" y="349.19" width="518.00" height="47.09" fill="rgb(244, 246, 250)" rx="4.00"/>
<text x="360.00" y="363.19" fill="rgb(31, 41, 64)" font-size="14" font-weight="400" font-family="\'Microsoft YaHei\', \'PingFang SC\', Arial, sans-serif" text-anchor="start">需要先确认接口权限和测试环境，演示范围可以先限定在酒店和酒交两个场景。</text>
<rect x="362.00" y="416.28" width="630.00" height="154.89" fill="rgb(255, 255, 255)" rx="12.00" stroke="rgb(220, 226, 240)" stroke-width="1"/>
<text x="379.00" y="442.28" fill="rgb(52, 100, 232)" font-size="13" font-weight="800" font-family="\'Microsoft YaHei\', \'PingFang SC\', Arial, sans-serif" text-anchor="start">工作秘书 · 由宋贤群发起</text>
<rect x="379.00" y="429.28" width="22.00" height="22.00" fill="rgb(77, 112, 245)" rx="7.00"/>
<text x="379.00" y="441.28" fill="rgb(255, 255, 255)" font-size="12" font-weight="800" font-family="\'Microsoft YaHei\', \'PingFang SC\', Arial, sans-serif" text-anchor="start">✦</text>
<text x="379.00" y="472.28" fill="rgb(176, 184, 204)" font-size="11" font-weight="400" font-family="\'Microsoft YaHei\', \'PingFang SC\', Arial, sans-serif" text-anchor="start">←</text>
<text x="394.00" y="471.28" fill="rgb(92, 106, 138)" font-size="12" font-weight="600" font-family="\'Microsoft YaHei\', \'PingFang SC\', Arial, sans-serif" text-anchor="start">回应 宋贤群</text>
<text x="461.58" y="471.28" fill="rgb(138, 147, 168)" font-size="12" font-weight="400" font-family="\'Microsoft YaHei\', \'PingFang SC\', Arial, sans-serif" text-anchor="start">：@工作秘书 请比较接口方案A和B的风险与实施成本。</text>
<text x="379.00" y="493.78" fill="rgb(154, 162, 181)" font-size="12" font-weight="400" font-family="\'Microsoft YaHei\', \'PingFang SC\', Arial, sans-serif" text-anchor="start">基于施展提出的：“需要先确认接口权限和测试环境……”</text>
<text x="379.00" y="520.58" fill="rgb(31, 41, 64)" font-size="14" font-weight="400" font-family="\'Microsoft YaHei\', \'PingFang SC\', Arial, sans-serif" text-anchor="start">方案A实施路径更短，适合本期演示；主要风险在于接口权限与环境准备。建议先锁定方案A，同时保留方案B作为后续扩展路径。</text>
<rect x="1211.00" y="593.17" width="29.00" height="29.00" fill="rgb(75, 159, 232)" rx="14.50" stroke="rgb(255, 255, 255)" stroke-width="2"/>
<text x="1211.00" y="604.17" fill="rgb(255, 255, 255)" font-size="11" font-weight="700" font-family="\'Microsoft YaHei\', \'PingFang SC\', Arial, sans-serif" text-anchor="start">宋贤</text>
<text x="1200.00" y="605.17" fill="rgb(117, 128, 151)" font-size="12" font-weight="400" font-family="\'Microsoft YaHei\', \'PingFang SC\', Arial, sans-serif" text-anchor="end">宋贤群 10:23</text>
<rect x="821.42" y="614.17" width="378.58" height="106.69" fill="rgb(233, 239, 255)" rx="16.00"/>
<text x="821.42" y="628.17" fill="rgb(31, 41, 64)" font-size="14" font-weight="400" font-family="\'Microsoft YaHei\', \'PingFang SC\', Arial, sans-serif" text-anchor="start">我来推动测试环境确认， 你协助确认演示范围。</text>
<rect x="835.42" y="626.17" width="350.00" height="51.59" fill="rgb(228, 233, 247)" rx="5.00"/>
<text x="835.42" y="638.17" fill="rgb(102, 113, 138)" font-size="12" font-weight="400" font-family="\'Microsoft YaHei\', \'PingFang SC\', Arial, sans-serif" text-anchor="start">&quot;需要先确认接口权限和测试环境……&quot;</text>
<text x="846.42" y="645.17" fill="rgb(78, 92, 122)" font-size="12" font-weight="700" font-family="\'Microsoft YaHei\', \'PingFang SC\', Arial, sans-serif" text-anchor="start">引用 施展</text>
<rect x="989.42" y="686.77" width="52.42" height="21.00" fill="rgb(233, 239, 255)" rx="5.00"/>
<text x="989.42" y="700.77" fill="rgb(52, 100, 232)" font-size="14" font-weight="600" font-family="\'Microsoft YaHei\', \'PingFang SC\', Arial, sans-serif" text-anchor="start">@陈斌</text>
<rect x="764.00" y="784.00" width="32.00" height="16.00" fill="rgb(38, 49, 77)" rx="8.00"/>
<rect x="320.00" y="828.00" width="920.00" height="94.00" fill="rgb(248, 249, 250)" rx="12.00" stroke="rgb(220, 225, 232)" stroke-width="1"/>
<text x="335.00" y="854.00" fill="#9aa2b5" font-size="14" font-family="\'Microsoft YaHei\'" opacity="0.6">与成员讨论，开启AI参与按钮，或输入 @智能体 让AI参与</text>
<rect x="333.00" y="875.00" width="894.00" height="1.00" fill="rgb(228, 232, 238)"/>
<rect x="331.00" y="883.50" width="111.67" height="29.00" fill="rgb(255, 255, 255)" rx="14.50" stroke="rgb(221, 227, 237)" stroke-width="1"/>
<g transform="translate(344.00,891.00)"><path d="M12 3l1.9 5.1L19 10l-5.1 1.9L12 17l-1.9-5.1L5 10l5.1-1.9L12 3z"></path><path d="M19 15l.8 2.2L22 18l-2.2.8L19 21l-.8-2.2L16 18l2.2-.8L19 15z"></path></g>
<text x="382.34" y="901.50" fill="rgb(91, 102, 124)" font-size="12" font-weight="400" font-family="Arial" text-anchor="middle">AI 参与</text>
<rect x="408.67" y="891.00" width="24.00" height="14.00" fill="rgb(195, 203, 217)" rx="7.00"/>
<rect x="410.67" y="893.00" width="10.00" height="10.00" fill="rgb(255, 255, 255)" rx="5.00"/>
<text x="501.20" y="901.50" fill="rgb(90, 100, 120)" font-size="13" font-weight="400" font-family="Arial" text-anchor="middle">@成员 / 智能体</text>
<text x="597.19" y="895.50" fill="rgb(90, 100, 120)" font-size="13" font-weight="400" font-family="Arial" text-anchor="middle">⚙ 技能</text>
<text x="620.48" y="902.00" fill="rgb(154, 162, 181)" font-size="10" font-weight="400" font-family="Arial" text-anchor="middle">▾</text>
<g transform="translate(1163.00,890.00)"><path d="M21.44 11.05l-9.19 9.19a6 6 0 0 1-8.49-8.49l9.19-9.19a4 4 0 0 1 5.66 5.66l-9.2 9.19a2 2 0 0 1-2.83-2.83l8.49-8.48"></path></g>
<rect x="1197.00" y="882.00" width="32.00" height="32.00" fill="rgb(77, 112, 245)" rx="16.00"/>
<text x="1213.00" y="897.00" fill="rgb(255, 255, 255)" font-size="15" font-weight="400" font-family="Arial" text-anchor="middle">➤</text>
<rect x="1270.00" y="20.00" width="330.00" height="920.00" fill="rgb(255, 255, 255)"/>
<rect x="1287.00" y="31.50" width="108.00" height="32.00" fill="rgb(248, 249, 250)" rx="10.00" stroke="rgb(228, 232, 238)" stroke-width="1"/>
<text x="1298.00" y="52.50" fill="rgb(90, 100, 120)" font-size="14" font-weight="700" font-family="\'Microsoft YaHei\', \'PingFang SC\', Arial, sans-serif" text-anchor="start">☰</text>
<text x="1324.00" y="52.50" fill="rgb(31, 41, 64)" font-size="15" font-weight="700" font-family="\'Microsoft YaHei\', \'PingFang SC\', Arial, sans-serif" text-anchor="start">会话目录</text>
<text x="1570.00" y="46.83" fill="rgb(138, 147, 168)" font-size="13.3333" font-weight="400" font-family="Arial" text-anchor="middle">⤢</text>
<rect x="1287.00" y="102.50" width="3.00" height="14.00" fill="rgb(52, 100, 232)" rx="1.50"/>
<text x="1300.00" y="114.00" fill="rgb(31, 41, 64)" font-size="14" font-weight="700" font-family="\'Microsoft YaHei\', \'PingFang SC\', Arial, sans-serif" text-anchor="start">会话摘要</text>
<text x="1573.11" y="113.00" fill="rgb(138, 147, 168)" font-size="11" font-weight="700" font-family="\'Microsoft YaHei\', \'PingFang SC\', Arial, sans-serif" text-anchor="start">▼</text>
<rect x="1287.00" y="131.00" width="66.00" height="29.00" fill="rgb(238, 242, 255)" rx="8.00"/>
<text x="1320.00" y="143.00" fill="rgb(70, 105, 233)" font-size="12" font-weight="400" font-family="Arial" text-anchor="middle">更新摘要</text>
<text x="1489.41" y="149.50" fill="rgb(139, 149, 169)" font-size="12" font-weight="400" font-family="\'Microsoft YaHei\', \'PingFang SC\', Arial, sans-serif" text-anchor="start">更新于今天 10:20</text>
<text x="1287.00" y="185.00" fill="rgb(31, 41, 64)" font-size="13" font-weight="800" font-family="\'Microsoft YaHei\', \'PingFang SC\', Arial, sans-serif" text-anchor="start">一、工作项</text>
<text x="1287.00" y="215.09" fill="rgb(78, 88, 112)" font-size="13" font-weight="400" font-family="\'Microsoft YaHei\', \'PingFang SC\', Arial, sans-serif" text-anchor="start">推进 ，完成 及演示准备。</text>
<text x="1316.86" y="217.09" fill="rgb(31, 41, 64)" font-size="13" font-weight="700" font-family="\'Microsoft YaHei\', \'PingFang SC\', Arial, sans-serif" text-anchor="start">630版本工作台改造</text>
<text x="1474.78" y="217.09" fill="rgb(31, 41, 64)" font-size="13" font-weight="700" font-family="\'Microsoft YaHei\', \'PingFang SC\', Arial, sans-serif" text-anchor="start">Rclaw 接入方案</text>
<text x="1287.00" y="275.28" fill="rgb(31, 41, 64)" font-size="13" font-weight="800" font-family="\'Microsoft YaHei\', \'PingFang SC\', Arial, sans-serif" text-anchor="start">二、当前进展</text>
<text x="1305.00" y="305.38" fill="rgb(78, 88, 112)" font-size="13" font-weight="400" font-family="\'Microsoft YaHei\', \'PingFang SC\', Arial, sans-serif" text-anchor="start">技术方案已完成，正在确认接入方式、权限和演示范围</text>
<text x="1305.00" y="353.56" fill="rgb(78, 88, 112)" font-size="13" font-weight="400" font-family="\'Microsoft YaHei\', \'PingFang SC\', Arial, sans-serif" text-anchor="start">陈斌提出：本期优先使用方案A验证</text>
<text x="1287.00" y="391.66" fill="rgb(31, 41, 64)" font-size="13" font-weight="800" font-family="\'Microsoft YaHei\', \'PingFang SC\', Arial, sans-serif" text-anchor="start">三、已完成</text>
<text x="1305.00" y="421.75" fill="rgb(78, 88, 112)" font-size="13" font-weight="400" font-family="\'Microsoft YaHei\', \'PingFang SC\', Arial, sans-serif" text-anchor="start">Rclaw 技术方案初稿</text>
<text x="1305.00" y="447.84" fill="rgb(78, 88, 112)" font-size="13" font-weight="400" font-family="\'Microsoft YaHei\', \'PingFang SC\', Arial, sans-serif" text-anchor="start">典型业务场景梳理</text>
<text x="1287.00" y="485.94" fill="rgb(31, 41, 64)" font-size="13" font-weight="800" font-family="\'Microsoft YaHei\', \'PingFang SC\', Arial, sans-serif" text-anchor="start">四、待推进</text>
<text x="1305.00" y="516.03" fill="rgb(78, 88, 112)" font-size="13" font-weight="400" font-family="\'Microsoft YaHei\', \'PingFang SC\', Arial, sans-serif" text-anchor="start">确认接口权限</text>
<text x="1386.86" y="518.03" fill="rgb(31, 41, 64)" font-size="13" font-weight="700" font-family="\'Microsoft YaHei\', \'PingFang SC\', Arial, sans-serif" text-anchor="start">@陈斌</text>
<text x="1305.00" y="542.13" fill="rgb(78, 88, 112)" font-size="13" font-weight="400" font-family="\'Microsoft YaHei\', \'PingFang SC\', Arial, sans-serif" text-anchor="start">确定演示范围</text>
<text x="1386.86" y="544.13" fill="rgb(31, 41, 64)" font-size="13" font-weight="700" font-family="\'Microsoft YaHei\', \'PingFang SC\', Arial, sans-serif" text-anchor="start">@施展</text>
<text x="1287.00" y="580.22" fill="rgb(31, 41, 64)" font-size="13" font-weight="800" font-family="\'Microsoft YaHei\', \'PingFang SC\', Arial, sans-serif" text-anchor="start">五、关键结论</text>
<text x="1305.00" y="610.31" fill="rgb(78, 88, 112)" font-size="13" font-weight="400" font-family="\'Microsoft YaHei\', \'PingFang SC\', Arial, sans-serif" text-anchor="start">本期优先使用方案A验证。</text>
<rect x="1461.16" y="599.31" width="40.00" height="21.00" fill="rgb(234, 240, 255)" rx="8.00"/>
<text x="1461.16" y="609.31" fill="rgb(52, 100, 232)" font-size="10" font-weight="400" font-family="\'Microsoft YaHei\', \'PingFang SC\', Arial, sans-serif" text-anchor="start">待确认</text>
<text x="1305.00" y="637.31" fill="rgb(78, 88, 112)" font-size="13" font-weight="400" font-family="\'Microsoft YaHei\', \'PingFang SC\', Arial, sans-serif" text-anchor="start">主要风险在于接口权限与环境准备，需提前确认。</text>
<text x="1305.00" y="685.50" fill="rgb(78, 88, 112)" font-size="13" font-weight="400" font-family="\'Microsoft YaHei\', \'PingFang SC\', Arial, sans-serif" text-anchor="start">建议先锁定方案A，同时保留方案B作为后续扩展路径。</text>
<rect x="1287.00" y="755.19" width="3.00" height="14.00" fill="rgb(52, 100, 232)" rx="1.50"/>
<text x="1300.00" y="766.69" fill="rgb(31, 41, 64)" font-size="14" font-weight="700" font-family="\'Microsoft YaHei\', \'PingFang SC\', Arial, sans-serif" text-anchor="start">当前任务</text>
<text x="1573.11" y="765.69" fill="rgb(138, 147, 168)" font-size="11" font-weight="700" font-family="\'Microsoft YaHei\', \'PingFang SC\', Arial, sans-serif" text-anchor="start">▼</text>
<text x="1287.00" y="795.69" fill="rgb(138, 147, 168)" font-size="12" font-weight="400" font-family="\'Microsoft YaHei\', \'PingFang SC\', Arial, sans-serif" text-anchor="start">暂无任务，可在会话中指派或转办任务。</text>
<rect x="1287.00" y="846.19" width="3.00" height="14.00" fill="rgb(52, 100, 232)" rx="1.50"/>
<text x="1300.00" y="857.69" fill="rgb(31, 41, 64)" font-size="14" font-weight="700" font-family="\'Microsoft YaHei\', \'PingFang SC\', Arial, sans-serif" text-anchor="start">协作智能体</text>
<text x="1573.11" y="856.69" fill="rgb(138, 147, 168)" font-size="11" font-weight="700" font-family="\'Microsoft YaHei\', \'PingFang SC\', Arial, sans-serif" text-anchor="start">▼</text>
<rect x="1297.00" y="885.19" width="28.00" height="28.00" fill="rgb(77, 112, 245)" rx="14.00"/>
<text x="1297.00" y="896.19" fill="rgb(255, 255, 255)" font-size="11" font-weight="700" font-family="\'Microsoft YaHei\', \'PingFang SC\', Arial, sans-serif" text-anchor="start">工</text>
<text x="1335.00" y="895.69" fill="rgb(31, 41, 64)" font-size="13" font-weight="600" font-family="\'Microsoft YaHei\', \'PingFang SC\', Arial, sans-serif" text-anchor="start">工作秘书</text>
<text x="1335.00" y="911.69" fill="rgb(138, 147, 168)" font-size="11" font-weight="400" font-family="\'Microsoft YaHei\', \'PingFang SC\', Arial, sans-serif" text-anchor="start">1 条回复</text>
<rect x="1566.00" y="895.19" width="8.00" height="8.00" fill="rgb(46, 204, 113)" rx="4.00"/>
<rect x="1297.00" y="938.19" width="28.00" height="28.00" fill="rgb(232, 67, 147)" rx="14.00"/>
<text x="1297.00" y="949.19" fill="rgb(255, 255, 255)" font-size="11" font-weight="700" font-family="\'Microsoft YaHei\', \'PingFang SC\', Arial, sans-serif" text-anchor="start">创</text>
<text x="1335.00" y="948.69" fill="rgb(31, 41, 64)" font-size="13" font-weight="600" font-family="\'Microsoft YaHei\', \'PingFang SC\', Arial, sans-serif" text-anchor="start">创意助手</text>
<text x="1335.00" y="964.69" fill="rgb(138, 147, 168)" font-size="11" font-weight="400" font-family="\'Microsoft YaHei\', \'PingFang SC\', Arial, sans-serif" text-anchor="start">2 条回复</text>
<rect x="1566.00" y="948.19" width="8.00" height="8.00" fill="rgb(46, 204, 113)" rx="4.00"/>
<rect x="1287.00" y="1007.19" width="3.00" height="14.00" fill="rgb(52, 100, 232)" rx="1.50"/>
<text x="1300.00" y="1018.69" fill="rgb(31, 41, 64)" font-size="14" font-weight="700" font-family="\'Microsoft YaHei\', \'PingFang SC\', Arial, sans-serif" text-anchor="start">成果物</text>
<text x="1573.11" y="1017.69" fill="rgb(138, 147, 168)" font-size="11" font-weight="700" font-family="\'Microsoft YaHei\', \'PingFang SC\', Arial, sans-serif" text-anchor="start">▼</text>
<rect x="1287.00" y="1035.69" width="297.00" height="56.00" fill="rgb(248, 249, 253)" rx="10.00"/>
<rect x="1297.00" y="1045.69" width="36.00" height="36.00" fill="rgb(232, 234, 255)" rx="8.00"/>
<text x="1297.00" y="1061.69" fill="rgb(108, 92, 231)" font-size="16" font-weight="400" font-family="\'Microsoft YaHei\', \'PingFang SC\', Arial, sans-serif" text-anchor="start">M</text>
<text x="1343.00" y="1059.19" fill="rgb(31, 41, 64)" font-size="12" font-weight="600" font-family="\'Microsoft YaHei\', \'PingFang SC\', Arial, sans-serif" text-anchor="start">任务面板设计方案.md</text>
<text x="1343.00" y="1076.19" fill="rgb(138, 147, 168)" font-size="11" font-weight="400" font-family="\'Microsoft YaHei\', \'PingFang SC\', Arial, sans-serif" text-anchor="start">07-17 16:00</text>
<text x="1560.00" y="1063.02" fill="rgb(138, 147, 168)" font-size="13.3333" font-weight="400" font-family="Arial" text-anchor="middle">⬇</text>
<rect x="1287.00" y="1122.19" width="3.00" height="14.00" fill="rgb(52, 100, 232)" rx="1.50"/>
<text x="1300.00" y="1133.69" fill="rgb(31, 41, 64)" font-size="14" font-weight="700" font-family="\'Microsoft YaHei\', \'PingFang SC\', Arial, sans-serif" text-anchor="start">来源</text>
<text x="1573.11" y="1132.69" fill="rgb(138, 147, 168)" font-size="11" font-weight="700" font-family="\'Microsoft YaHei\', \'PingFang SC\', Arial, sans-serif" text-anchor="start">▼</text>
<rect x="1287.00" y="1150.69" width="297.00" height="56.00" fill="rgb(248, 249, 253)" rx="10.00"/>
<rect x="1297.00" y="1158.69" width="40.00" height="40.00" fill="rgb(238, 241, 246)" rx="8.00"/>
<text x="1297.00" y="1172.69" fill="rgb(138, 147, 168)" font-size="14" font-weight="400" font-family="\'Microsoft YaHei\', \'PingFang SC\', Arial, sans-serif" text-anchor="start">🖼</text>
<text x="1347.00" y="1174.19" fill="rgb(31, 41, 64)" font-size="12" font-weight="600" font-family="\'Microsoft YaHei\', \'PingFang SC\', Arial, sans-serif" text-anchor="start">接口权限截图.png</text>
<text x="1347.00" y="1191.19" fill="rgb(138, 147, 168)" font-size="11" font-weight="400" font-family="\'Microsoft YaHei\', \'PingFang SC\', Arial, sans-serif" text-anchor="start">宋贤群 · 07-16 15:42</text>
<rect x="1502.00" y="1170.69" width="72.00" height="16.00" fill="rgb(238, 241, 246)" rx="8.00"/>
<text x="1502.00" y="1180.69" fill="rgb(90, 100, 120)" font-size="10" font-weight="400" font-family="\'Microsoft YaHei\', \'PingFang SC\', Arial, sans-serif" text-anchor="start">已附加到对话</text>
<rect x="1287.00" y="1214.69" width="297.00" height="56.00" fill="rgb(248, 249, 253)" rx="10.00"/>
<rect x="1297.00" y="1222.69" width="40.00" height="40.00" fill="rgb(238, 241, 246)" rx="8.00"/>
<text x="1297.00" y="1236.69" fill="rgb(138, 147, 168)" font-size="14" font-weight="400" font-family="\'Microsoft YaHei\', \'PingFang SC\', Arial, sans-serif" text-anchor="start">📊</text>
<text x="1347.00" y="1238.19" fill="rgb(31, 41, 64)" font-size="12" font-weight="600" font-family="\'Microsoft YaHei\', \'PingFang SC\', Arial, sans-serif" text-anchor="start">演示范围评估表.xlsx</text>
<text x="1347.00" y="1255.19" fill="rgb(138, 147, 168)" font-size="11" font-weight="400" font-family="\'Microsoft YaHei\', \'PingFang SC\', Arial, sans-serif" text-anchor="start">宋贤群 · 07-16 15:40</text>
<rect x="1502.00" y="1234.69" width="72.00" height="16.00" fill="rgb(238, 241, 246)" rx="8.00"/>
<text x="1502.00" y="1244.69" fill="rgb(90, 100, 120)" font-size="10" font-weight="400" font-family="\'Microsoft YaHei\', \'PingFang SC\', Arial, sans-serif" text-anchor="start">已附加到对话</text>
<rect x="1287.00" y="1278.69" width="297.00" height="56.00" fill="rgb(248, 249, 253)" rx="10.00"/>
<rect x="1297.00" y="1286.69" width="40.00" height="40.00" fill="rgb(238, 241, 246)" rx="8.00"/>
<text x="1297.00" y="1300.69" fill="rgb(138, 147, 168)" font-size="14" font-weight="400" font-family="\'Microsoft YaHei\', \'PingFang SC\', Arial, sans-serif" text-anchor="start">📄</text>
<text x="1347.00" y="1302.19" fill="rgb(31, 41, 64)" font-size="12" font-weight="600" font-family="\'Microsoft YaHei\', \'PingFang SC\', Arial, sans-serif" text-anchor="start">Rclaw技术方案v1.docx</text>
<text x="1347.00" y="1319.19" fill="rgb(138, 147, 168)" font-size="11" font-weight="400" font-family="\'Microsoft YaHei\', \'PingFang SC\', Arial, sans-serif" text-anchor="start">宋贤群 · 07-15 10:18</text>
<rect x="1502.00" y="1298.69" width="72.00" height="16.00" fill="rgb(238, 241, 246)" rx="8.00"/>
<text x="1502.00" y="1308.69" fill="rgb(90, 100, 120)" font-size="10" font-weight="400" font-family="\'Microsoft YaHei\', \'PingFang SC\', Arial, sans-serif" text-anchor="start">已附加到对话</text>
<rect x="0.00" y="0.00" width="1600.00" height="960.00" fill="rgba(20, 30, 55, 0.45)"/>
<rect x="590.00" y="362.00" width="420.00" height="236.00" fill="rgb(255, 255, 255)" rx="16.00"/>
<rect x="968.00" y="376.00" width="28.00" height="28.00" fill="rgba(0, 0, 0, 0.04)" rx="8.00"/>
<text x="982.00" y="392.00" fill="rgb(138, 147, 168)" font-size="16" font-weight="400" font-family="Arial" text-anchor="middle">×</text>
<text x="800.00" y="403.00" fill="rgb(31, 41, 64)" font-size="17" font-weight="800" font-family="\'Microsoft YaHei\', \'PingFang SC\', Arial, sans-serif" text-anchor="middle">会话成员</text>
<text x="800.00" y="424.00" fill="rgb(138, 147, 168)" font-size="12" font-weight="400" font-family="\'Microsoft YaHei\', \'PingFang SC\', Arial, sans-serif" text-anchor="middle">630版本迭代</text>
<rect x="610.00" y="444.50" width="338.00" height="33.00" fill="rgb(248, 249, 250)" rx="10.00" stroke="rgb(220, 225, 232)" stroke-width="1"/>
<text x="644.00" y="465.50" fill="#9aa2b5" font-size="13" font-family="Arial" opacity="0.6">搜索成员</text>
<rect x="956.00" y="444.00" width="34.00" height="34.00" fill="rgb(31, 41, 64)" rx="17.00"/>
<text x="973.00" y="464.00" fill="rgb(255, 255, 255)" font-size="20" font-weight="400" font-family="Arial" text-anchor="middle">+</text>
<text x="590.00" y="504.00" fill="rgb(138, 147, 168)" font-size="12" font-weight="600" font-family="\'Microsoft YaHei\', \'PingFang SC\', Arial, sans-serif" text-anchor="start">管理成员</text>
<rect x="590.00" y="532.00" width="420.00" height="66.00" fill="none" stroke="rgb(238, 240, 245) rgb(31, 41, 64) rgb(31, 41, 64)" stroke-width="1"/>
<rect x="826.00" y="547.00" width="64.00" height="37.00" fill="rgb(255, 255, 255)" rx="10.00" stroke="rgb(220, 225, 232)" stroke-width="1"/>
<text x="858.00" y="560.00" fill="rgb(90, 100, 120)" font-size="13" font-weight="400" font-family="Arial" text-anchor="middle">关闭</text>
<rect x="898.00" y="547.00" width="92.00" height="37.00" fill="rgb(176, 189, 216)" rx="10.00"/>
<text x="944.00" y="560.00" fill="rgb(255, 255, 255)" font-size="13" font-weight="700" font-family="Arial" text-anchor="middle">发送邀请</text>
</svg>