<?xml version="1.0" encoding="UTF-8"?>
<svg xmlns="http://www.w3.org/2000/svg" width="980" height="920" viewBox="0 0 980 920">
<text x="22.00" y="40.50" fill="rgb(31, 41, 64)" font-size="21" font-weight="800" font-family="\'Microsoft YaHei\', \'PingFang SC\', Arial, sans-serif" text-anchor="start">630版本迭代</text>
<rect x="149.59" y="21.50" width="79.41" height="30.00" fill="rgb(234, 240, 255)" rx="15.00"/>
<text x="149.59" y="33.50" fill="rgb(52, 100, 232)" font-size="12" font-weight="700" font-family="\'Microsoft YaHei\', \'PingFang SC\', Arial, sans-serif" text-anchor="start">● 多人协作</text>
<rect x="790.33" y="21.00" width="29.00" height="29.00" fill="rgb(139, 114, 232)" rx="14.50" stroke="rgb(255, 255, 255)" stroke-width="2"/>
<text x="790.33" y="32.00" fill="rgb(255, 255, 255)" font-size="11" font-weight="700" font-family="\'Microsoft YaHei\', \'PingFang SC\', Arial, sans-serif" text-anchor="start">陈斌</text>
<rect x="826.33" y="21.00" width="29.00" height="29.00" fill="rgb(227, 135, 93)" rx="14.50" stroke="rgb(255, 255, 255)" stroke-width="2"/>
<text x="826.33" y="32.00" fill="rgb(255, 255, 255)" font-size="11" font-weight="700" font-family="\'Microsoft YaHei\', \'PingFang SC\', Arial, sans-serif" text-anchor="start">施展</text>
<rect x="862.33" y="21.00" width="29.00" height="29.00" fill="rgb(75, 159, 232)" rx="14.50" stroke="rgb(255, 255, 255)" stroke-width="2"/>
<text x="862.33" y="32.00" fill="rgb(255, 255, 255)" font-size="11" font-weight="700" font-family="\'Microsoft YaHei\', \'PingFang SC\', Arial, sans-serif" text-anchor="start">宋贤</text>
<rect x="905.33" y="18.00" width="52.67" height="35.00" fill="rgb(234, 240, 255)" rx="17.50"/>
<text x="931.66" y="31.33" fill="rgb(65, 102, 233)" font-size="13.3333" font-weight="700" font-family="Arial" text-anchor="middle">邀请</text>
<rect x="289.28" y="91.00" width="401.42" height="30.00" fill="rgb(241, 244, 250)" rx="14.00"/>
<text x="489.99" y="103.00" fill="rgb(110, 120, 145)" font-size="12" font-weight="400" font-family="\'Microsoft YaHei\', \'PingFang SC\', Arial, sans-serif" text-anchor="middle">会话已进入多人协作模式 · 可通过输入框AI开关或 @工作秘书 让AI参与</text>
<rect x="30.00" y="138.00" width="29.00" height="29.00" fill="rgb(139, 114, 232)" rx="14.50" stroke="rgb(255, 255, 255)" stroke-width="2"/>
<text x="30.00" y="149.00" fill="rgb(255, 255, 255)" font-size="11" font-weight="700" font-family="\'Microsoft YaHei\', \'PingFang SC\', Arial, sans-serif" text-anchor="start">陈斌</text>
<text x="70.00" y="150.00" fill="rgb(117, 128, 151)" font-size="12" font-weight="400" font-family="\'Microsoft YaHei\', \'PingFang SC\', Arial, sans-serif" text-anchor="start">陈斌 10:12</text>
<rect x="70.00" y="159.00" width="458.30" height="47.09" fill="rgb(244, 246, 250)" rx="4.00"/>
<text x="70.00" y="173.00" fill="rgb(31, 41, 64)" font-size="14" font-weight="400" font-family="\'Microsoft YaHei\', \'PingFang SC\', Arial, sans-serif" text-anchor="start">Rclaw技术方案初稿已经完成，接下来需要确认接入方式和演示范围。</text>
<rect x="921.00" y="223.09" width="29.00" height="29.00" fill="rgb(75, 159, 232)" rx="14.50" stroke="rgb(255, 255, 255)" stroke-width="2"/>
<text x="921.00" y="234.09" fill="rgb(255, 255, 255)" font-size="11" font-weight="700" font-family="\'Microsoft YaHei\', \'PingFang SC\', Arial, sans-serif" text-anchor="start">宋贤</text>
<text x="910.00" y="235.09" fill="rgb(117, 128, 151)" font-size="12" font-weight="400" font-family="\'Microsoft YaHei\', \'PingFang SC\', Arial, sans-serif" text-anchor="end">宋贤群 10:16</text>
<rect x="564.14" y="244.09" width="345.86" height="47.09" fill="rgb(233, 239, 255)" rx="16.00"/>
<text x="564.14" y="258.09" fill="rgb(31, 41, 64)" font-size="14" font-weight="400" font-family="\'Microsoft YaHei\', \'PingFang SC\', Arial, sans-serif" text-anchor="start">我建议先按接口方案A验证，大家看看是否有风险？</text>
<rect x="30.00" y="308.19" width="29.00" height="29.00" fill="rgb(227, 135, 93)" rx="14.50" stroke="rgb(255, 255, 255)" stroke-width="2"/>
<text x="30.00" y="319.19" fill="rgb(255, 255, 255)" font-size="11" font-weight="700" font-family="\'Microsoft YaHei\', \'PingFang SC\', Arial, sans-serif" text-anchor="start">施展</text>
<text x="70.00" y="320.19" fill="rgb(117, 128, 151)" font-size="12" font-weight="400" font-family="\'Microsoft YaHei\', \'PingFang SC\', Arial, sans-serif" text-anchor="start">施展 10:18</text>
<rect x="70.00" y="329.19" width="518.00" height="47.09" fill="rgb(244, 246, 250)" rx="4.00"/>
<text x="70.00" y="343.19" fill="rgb(31, 41, 64)" font-size="14" font-weight="400" font-family="\'Microsoft YaHei\', \'PingFang SC\', Arial, sans-serif" text-anchor="start">需要先确认接口权限和测试环境，演示范围可以先限定在酒店和酒交两个场景。</text>
<rect x="72.00" y="396.28" width="630.00" height="154.89" fill="rgb(255, 255, 255)" rx="12.00" stroke="rgb(220, 226, 240)" stroke-width="1"/>
<text x="89.00" y="422.28" fill="rgb(52, 100, 232)" font-size="13" font-weight="800" font-family="\'Microsoft YaHei\', \'PingFang SC\', Arial, sans-serif" text-anchor="start">工作秘书 · 由宋贤群发起</text>
<rect x="89.00" y="409.28" width="22.00" height="22.00" fill="rgb(77, 112, 245)" rx="7.00"/>
<text x="89.00" y="421.28" fill="rgb(255, 255, 255)" font-size="12" font-weight="800" font-family="\'Microsoft YaHei\', \'PingFang SC\', Arial, sans-serif" text-anchor="start">✦</text>
<text x="89.00" y="452.28" fill="rgb(176, 184, 204)" font-size="11" font-weight="400" font-family="\'Microsoft YaHei\', \'PingFang SC\', Arial, sans-serif" text-anchor="start">←</text>
<text x="104.00" y="451.28" fill="rgb(92, 106, 138)" font-size="12" font-weight="600" font-family="\'Microsoft YaHei\', \'PingFang SC\', Arial, sans-serif" text-anchor="start">回应 宋贤群</text>
<text x="171.58" y="451.28" fill="rgb(138, 147, 168)" font-size="12" font-weight="400" font-family="\'Microsoft YaHei\', \'PingFang SC\', Arial, sans-serif" text-anchor="start">：@工作秘书 请比较接口方案A和B的风险与实施成本。</text>
<text x="89.00" y="473.78" fill="rgb(154, 162, 181)" font-size="12" font-weight="400" font-family="\'Microsoft YaHei\', \'PingFang SC\', Arial, sans-serif" text-anchor="start">基于施展提出的：“需要先确认接口权限和测试环境……”</text>
<text x="89.00" y="500.58" fill="rgb(31, 41, 64)" font-size="14" font-weight="400" font-family="\'Microsoft YaHei\', \'PingFang SC\', Arial, sans-serif" text-anchor="start">方案A实施路径更短，适合本期演示；主要风险在于接口权限与环境准备。建议先锁定方案A，同时保留方案B作为后续扩展路径。</text>
<rect x="921.00" y="573.17" width="29.00" height="29.00" fill="rgb(75, 159, 232)" rx="14.50" stroke="rgb(255, 255, 255)" stroke-width="2"/>
<text x="921.00" y="584.17" fill="rgb(255, 255, 255)" font-size="11" font-weight="700" font-family="\'Microsoft YaHei\', \'PingFang SC\', Arial, sans-serif" text-anchor="start">宋贤</text>
<text x="910.00" y="585.17" fill="rgb(117, 128, 151)" font-size="12" font-weight="400" font-family="\'Microsoft YaHei\', \'PingFang SC\', Arial, sans-serif" text-anchor="end">宋贤群 10:23</text>
<rect x="531.42" y="594.17" width="378.58" height="106.69" fill="rgb(233, 239, 255)" rx="16.00"/>
<text x="531.42" y="608.17" fill="rgb(31, 41, 64)" font-size="14" font-weight="400" font-family="\'Microsoft YaHei\', \'PingFang SC\', Arial, sans-serif" text-anchor="start">我来推动测试环境确认， 你协助确认演示范围。</text>
<rect x="545.42" y="606.17" width="350.00" height="51.59" fill="rgb(228, 233, 247)" rx="5.00"/>
<text x="545.42" y="618.17" fill="rgb(102, 113, 138)" font-size="12" font-weight="400" font-family="\'Microsoft YaHei\', \'PingFang SC\', Arial, sans-serif" text-anchor="start">&quot;需要先确认接口权限和测试环境……&quot;</text>
<text x="556.42" y="625.17" fill="rgb(78, 92, 122)" font-size="12" font-weight="700" font-family="\'Microsoft YaHei\', \'PingFang SC\', Arial, sans-serif" text-anchor="start">引用 施展</text>
<rect x="699.42" y="666.77" width="52.42" height="21.00" fill="rgb(233, 239, 255)" rx="5.00"/>
<text x="699.42" y="680.77" fill="rgb(52, 100, 232)" font-size="14" font-weight="600" font-family="\'Microsoft YaHei\', \'PingFang SC\', Arial, sans-serif" text-anchor="start">@陈斌</text>
<rect x="474.00" y="764.00" width="32.00" height="16.00" fill="rgb(38, 49, 77)" rx="8.00"/>
<rect x="30.00" y="808.00" width="920.00" height="94.00" fill="rgb(248, 249, 250)" rx="12.00" stroke="rgb(220, 225, 232)" stroke-width="1"/>
<text x="45.00" y="834.00" fill="#9aa2b5" font-size="14" font-family="\'Microsoft YaHei\'" opacity="0.6">与成员讨论，开启AI参与按钮，或输入 @智能体 让AI参与</text>
<rect x="43.00" y="855.00" width="894.00" height="1.00" fill="rgb(228, 232, 238)"/>
<rect x="41.00" y="863.50" width="111.67" height="29.00" fill="rgb(255, 255, 255)" rx="14.50" stroke="rgb(221, 227, 237)" stroke-width="1"/>
<g transform="translate(54.00,871.00)"><path d="M12 3l1.9 5.1L19 10l-5.1 1.9L12 17l-1.9-5.1L5 10l5.1-1.9L12 3z"></path><path d="M19 15l.8 2.2L22 18l-2.2.8L19 21l-.8-2.2L16 18l2.2-.8L19 15z"></path></g>
<text x="92.34" y="881.50" fill="rgb(91, 102, 124)" font-size="12" font-weight="400" font-family="Arial" text-anchor="middle">AI 参与</text>
<rect x="118.67" y="871.00" width="24.00" height="14.00" fill="rgb(195, 203, 217)" rx="7.00"/>
<rect x="120.67" y="873.00" width="10.00" height="10.00" fill="rgb(255, 255, 255)" rx="5.00"/>
<text x="211.20" y="881.50" fill="rgb(90, 100, 120)" font-size="13" font-weight="400" font-family="Arial" text-anchor="middle">@成员 / 智能体</text>
<text x="307.19" y="875.50" fill="rgb(90, 100, 120)" font-size="13" font-weight="400" font-family="Arial" text-anchor="middle">⚙ 技能</text>
<text x="330.48" y="882.00" fill="rgb(154, 162, 181)" font-size="10" font-weight="400" font-family="Arial" text-anchor="middle">▾</text>
<g transform="translate(873.00,870.00)"><path d="M21.44 11.05l-9.19 9.19a6 6 0 0 1-8.49-8.49l9.19-9.19a4 4 0 0 1 5.66 5.66l-9.2 9.19a2 2 0 0 1-2.83-2.83l8.49-8.48"></path></g>
<rect x="907.00" y="862.00" width="32.00" height="32.00" fill="rgb(77, 112, 245)" rx="16.00"/>
<text x="923.00" y="877.00" fill="rgb(255, 255, 255)" font-size="15" font-weight="400" font-family="Arial" text-anchor="middle">➤</text>
</svg>